<?xml version="1.0" encoding="iso-8859-1"?>
<!-- Generator: Adobe Illustrator 18.1.1, SVG Export Plug-In . SVG Version: 6.00 Build 0)  -->
<svg version="1.1" id="Capa_1" xmlns="http://www.w3.org/2000/svg" xmlns:xlink="http://www.w3.org/1999/xlink" x="0px" y="0px"
	 viewBox="0 0 53.545 53.545" style="enable-background:new 0 0 53.545 53.545;" xml:space="preserve">
<g>
	<path style="fill:#010002;" d="M48.309,26.773c-0.046-8.692-1.726-21.709-1.726-21.709C45.627,2.11,44.316,0,41.52,0H12.153
		C9.357,0,7.919,2.29,7.089,5.064c0,0-1.856,13.27-1.856,21.709s1.856,21.709,1.856,21.709c0.864,2.831,2.268,5.063,5.064,5.063
		H41.52c2.797,0,4.178-2.203,5.063-5.063C46.583,48.482,48.394,34.537,48.309,26.773z M37.563,2.273c1.105,0,2,0.896,2,2
		s-0.895,2-2,2c-1.104,0-2-0.896-2-2S36.459,2.273,37.563,2.273z M23.689,3.773h6.167c0.276,0,0.5,0.224,0.5,0.5s-0.224,0.5-0.5,0.5
		h-6.167c-0.276,0-0.5-0.224-0.5-0.5S23.413,3.773,23.689,3.773z M32.773,48.273h-12c-0.829,0-1.5-0.671-1.5-1.5s0.671-1.5,1.5-1.5
		h12c0.829,0,1.5,0.671,1.5,1.5S33.602,48.273,32.773,48.273z M41.606,38.273c0,1.105-0.896,2-2,2H13.939c-1.105,0-2-0.895-2-2
		V10.44c0-1.104,0.895-2,2-2h25.667c1.104,0,2,0.896,2,2V38.273z"/>
</g>
<g>
</g>
<g>
</g>
<g>
</g>
<g>
</g>
<g>
</g>
<g>
</g>
<g>
</g>
<g>
</g>
<g>
</g>
<g>
</g>
<g>
</g>
<g>
</g>
<g>
</g>
<g>
</g>
<g>
</g>
</svg>
