<?xml version="1.0" encoding="iso-8859-1"?>
<!-- Generator: Adobe Illustrator 19.0.0, SVG Export Plug-In . SVG Version: 6.00 Build 0)  -->
<svg version="1.1" id="Layer_1" xmlns="http://www.w3.org/2000/svg" xmlns:xlink="http://www.w3.org/1999/xlink" x="0px" y="0px"
	 viewBox="0 0 511.727 511.727" style="enable-background:new 0 0 511.727 511.727;" xml:space="preserve">
<g transform="translate(1 1)">
	<path style="fill:#FFDD09;" d="M359.867,502.049H168.951c0-28.637,23.431-52.068,52.068-52.068h86.78
		C336.436,449.981,359.867,473.411,359.867,502.049"/>
	<path style="fill:#FFFFFF;" d="M221.019,449.981h-26.034c-28.637,0-52.068,23.431-52.068,52.068h26.034
		C168.951,473.411,192.382,449.981,221.019,449.981"/>
	<path style="fill:#FD9808;" d="M333.833,449.981h-26.034c28.637,0,52.068,23.431,52.068,52.068h26.034
		C385.901,473.411,362.47,449.981,333.833,449.981"/>
	<g>
		<path style="fill:#FFDD09;" d="M403.257,259.066c-2.603,0-4.339,0-6.942,0.868l-132.773-137.98
			c-1.736,1.736-2.603,4.339-4.339,6.075c0,0,0,0.868-0.868,0.868c-1.736,1.736-3.471,3.471-5.207,5.207l-13.885,13.017
			L370.28,285.967c-1.736,2.603-1.736,5.207-1.736,7.81c0,3.471,0.868,6.075,0.868,8.678L221.887,449.981h49.464l123.227-122.359
			c3.471,0.868,6.075,0.868,8.678,0.868c19.092,0,34.712-15.62,34.712-34.712C437.968,274.686,422.348,259.066,403.257,259.066"/>
		<path style="fill:#FFDD09;" d="M116.884,154.93H82.172c-5.207,0-8.678-3.471-8.678-8.678c0-5.207,3.471-8.678,8.678-8.678h34.712
			c5.207,0,8.678,3.471,8.678,8.678C125.562,151.459,122.09,154.93,116.884,154.93z"/>
		<path style="fill:#FFDD09;" d="M99.528,206.998c-2.603,0-4.339-0.868-6.075-2.603c-3.471-3.471-3.471-8.678,0-12.149
			l17.356-17.356c3.471-3.471,8.678-3.471,12.149,0c3.471,3.471,3.471,8.678,0,12.149l-17.356,17.356
			C103.867,206.13,102.131,206.998,99.528,206.998z"/>
		<path style="fill:#FFDD09;" d="M168.951,241.71c-5.207,0-8.678-3.471-8.678-8.678V198.32c0-5.207,3.471-8.678,8.678-8.678
			c5.207,0,8.678,3.471,8.678,8.678v34.712C177.629,238.239,174.158,241.71,168.951,241.71z"/>
	</g>
	<g>
		<path style="fill:#FCC309;" d="M240.979,16.083L226.226,29.1c11.281,2.603,22.563,8.678,31.241,18.224
			c8.678,9.546,13.885,20.827,14.753,32.976l15.62-12.149c13.885-13.017,15.62-34.712,2.603-48.597
			C277.426,4.801,255.731,3.066,240.979,16.083"/>
		<path style="fill:#FCC309;" d="M165.48,95.92l-13.885,13.885c-10.414,9.546-11.281,26.034-1.736,36.447
			c9.546,10.414,26.034,11.281,36.447,1.736l13.017-11.281L165.48,95.92z"/>
	</g>
	<path style="fill:#FFDD09;" d="M253.128,134.103l-32.108,29.505L142.918,68.15l29.505-25.166
		c25.166-22.563,63.349-19.959,85.912,5.207C280.029,73.357,278.294,111.54,253.128,134.103"/>
	<path d="M385.901,510.727H142.918c-5.207,0-8.678-3.471-8.678-8.678c0-33.844,26.902-60.746,60.746-60.746h138.847
		c33.844,0,60.746,26.902,60.746,60.746C394.579,507.256,391.107,510.727,385.901,510.727z M152.463,493.371h223.892
		c-4.339-19.959-21.695-34.712-42.522-34.712H194.985C174.158,458.659,156.802,473.411,152.463,493.371z"/>
	<path d="M411.935,293.778c0,5.207-3.471,8.678-8.678,8.678c-5.207,0-8.678-3.471-8.678-8.678c0-5.207,3.471-8.678,8.678-8.678
		C408.463,285.1,411.935,289.439,411.935,293.778"/>
	<path d="M221.019,172.286L221.019,172.286c-2.603,0-5.207-1.736-6.942-3.471l-78.102-95.458c-2.603-3.471-2.603-8.678,0.868-12.149
		l29.505-25.166c13.885-12.149,31.241-18.224,50.332-17.356c18.224,1.736,35.58,9.546,47.729,23.431
		c25.166,28.637,23.431,72.027-5.207,98.061l-32.108,29.505C225.358,171.418,223.623,172.286,221.019,172.286z M155.067,69.018
		l66.82,81.573l25.166-23.431l0,0c21.695-19.092,23.431-52.068,4.339-73.763c-9.546-10.414-21.695-16.488-35.58-17.356
		c-13.885-0.868-26.902,3.471-37.315,13.017L155.067,69.018z"/>
	<path d="M273.087,89.845c-0.868,0-1.736,0-3.471-0.868c-2.603-0.868-5.207-3.471-5.207-6.942
		c-0.868-10.414-6.075-20.827-13.017-28.637c-6.942-7.81-16.488-13.885-26.902-15.62c-3.471-0.868-5.207-3.471-6.075-6.075
		c-0.868-3.471,0-6.075,2.603-8.678l14.753-13.017c18.224-15.62,45.125-14.753,61.614,3.471
		c15.62,18.224,14.753,45.125-3.471,61.614L279.162,88.11C277.426,88.978,274.823,89.845,273.087,89.845z M243.582,26.496
		c7.81,3.471,14.753,8.678,20.827,15.62s10.414,14.753,13.885,22.563l3.471-3.471c10.414-9.546,11.281-26.034,1.736-36.447
		c-9.546-10.414-26.034-11.281-36.447-1.736l0,0L243.582,26.496z M240.979,16.083L240.979,16.083L240.979,16.083z"/>
	<path d="M272.219,458.659h-49.464c-3.471,0-6.942-1.736-7.81-5.207c-0.868-3.471-0.868-6.942,1.736-9.546l144.054-144.054
		c0-1.736-0.868-4.339-0.868-6.075c0-1.736,0-3.471,0-5.207L232.301,153.195c-1.736-1.736-2.603-4.339-2.603-6.075
		s0.868-4.339,2.603-6.075l13.885-13.017c1.736-1.736,3.471-3.471,4.339-5.207c1.736-2.603,3.471-3.471,4.339-5.207
		c1.736-2.603,3.471-3.471,6.075-3.471c2.603,0,5.207,0.868,6.942,2.603L398.05,252.123c26.034-2.603,46.861,18.224,46.861,43.39
		c0,24.298-19.092,43.39-43.39,43.39c-1.736,0-3.471,0-5.207,0l-118.02,117.153C276.558,457.791,273.955,458.659,272.219,458.659z
		 M243.582,441.303h25.166l120.624-119.756c1.736-1.736,5.207-2.603,7.81-2.603c2.603,0.868,4.339,0.868,6.075,0.868
		c14.753,0,26.034-11.281,26.034-26.034c0-14.753-11.281-26.034-26.034-26.034c-1.736,0-3.471,0-5.207,0.868
		c-2.603,0.868-6.075,0-7.81-2.603L264.409,134.971c-1.736,1.736-3.471,3.471-5.207,5.207l-7.81,6.942l124.963,132.773
		c1.736,1.736,2.603,5.207,1.736,7.81c-0.868,2.603-0.868,4.339-0.868,6.075c0,1.736,0,4.339,0.868,6.942
		c0.868,2.603,0,6.075-2.603,8.678L243.582,441.303z"/>
	<path d="M168.951,163.608c-9.546,0-19.092-4.339-26.034-11.281c-6.075-6.942-9.546-15.62-8.678-25.166s4.339-17.356,11.281-24.298
		l13.885-13.017c1.736-1.736,4.339-2.603,6.942-2.603s4.339,0.868,6.075,3.471l33.844,40.786c2.603,3.471,2.603,8.678-0.868,12.149
		l-13.017,11.281C185.44,161.005,177.629,163.608,168.951,163.608z M164.613,108.937l-6.942,6.942
		c-3.471,3.471-6.075,7.81-6.075,12.149c0,4.339,0.868,8.678,4.339,12.149c6.075,6.942,17.356,7.81,24.298,1.736l6.942-6.075
		L164.613,108.937z"/>
	<path d="M108.206,146.252H73.494c-5.207,0-8.678-3.471-8.678-8.678c0-5.207,3.471-8.678,8.678-8.678h34.712
		c5.207,0,8.678,3.471,8.678,8.678C116.884,142.781,113.413,146.252,108.206,146.252z"/>
	<path d="M99.528,198.32c-2.603,0-4.339-0.868-6.075-2.603c-3.471-3.471-3.471-8.678,0-12.149l17.356-17.356
		c3.471-3.471,8.678-3.471,12.149,0c3.471,3.471,3.471,8.678,0,12.149l-17.356,17.356C103.867,197.452,102.131,198.32,99.528,198.32
		z"/>
	<path d="M160.274,233.032c-5.207,0-8.678-3.471-8.678-8.678v-34.712c0-5.207,3.471-8.678,8.678-8.678
		c5.207,0,8.678,3.471,8.678,8.678v34.712C168.951,229.561,165.48,233.032,160.274,233.032z"/>
</g>
<g>
</g>
<g>
</g>
<g>
</g>
<g>
</g>
<g>
</g>
<g>
</g>
<g>
</g>
<g>
</g>
<g>
</g>
<g>
</g>
<g>
</g>
<g>
</g>
<g>
</g>
<g>
</g>
<g>
</g>
</svg>
